<?xml version="1.0" standalone="no"?>
<!DOCTYPE svg PUBLIC "-//W3C//DTD SVG 20010904//EN"
 "http://www.w3.org/TR/2001/REC-SVG-20010904/DTD/svg10.dtd">
<svg version="1.0" xmlns="http://www.w3.org/2000/svg"
 width="607.000000pt" height="607.000000pt" viewBox="0 0 607.000000 607.000000"
 preserveAspectRatio="xMidYMid meet">
<metadata>
Created by potrace 1.11, written by Peter Selinger 2001-2013
</metadata>
<g transform="translate(0.000000,607.000000) scale(0.100000,-0.100000)"
fill="#000000" stroke="none">
<path d="M2828 6065 c-2 -2 -37 -6 -78 -9 -41 -3 -86 -8 -100 -10 -14 -3 -43
-7 -65 -10 -22 -3 -52 -8 -67 -11 -16 -3 -40 -7 -55 -10 -44 -7 -176 -36 -193
-43 -8 -3 -19 -6 -25 -7 -5 -1 -13 -3 -17 -5 -5 -1 -11 -3 -15 -4 -37 -9 -141
-42 -196 -62 -37 -14 -73 -27 -80 -28 -22 -5 -89 -36 -245 -112 -161 -79 -208
-106 -336 -191 -43 -29 -80 -53 -81 -53 -2 0 -14 -9 -27 -20 -12 -10 -68 -55
-123 -99 -55 -43 -152 -130 -216 -193 -104 -102 -170 -174 -254 -280 -33 -41
-105 -139 -130 -178 -17 -25 -33 -47 -36 -50 -4 -3 -16 -23 -28 -45 -12 -22
-30 -53 -41 -70 -37 -57 -159 -302 -188 -376 -16 -41 -33 -83 -37 -94 -4 -11
-9 -24 -11 -30 -1 -5 -14 -43 -28 -82 -13 -40 -22 -73 -18 -73 4 0 2 -4 -3 -8
-8 -5 -65 -212 -71 -257 -1 -5 -3 -12 -4 -15 -1 -3 -3 -16 -5 -30 -2 -14 -11
-68 -19 -120 -25 -145 -31 -236 -31 -460 0 -237 8 -328 41 -520 23 -127 68
-315 92 -380 3 -8 6 -19 8 -25 7 -30 70 -198 92 -250 53 -121 180 -363 236
-450 50 -77 189 -270 206 -285 3 -3 30 -34 60 -70 52 -62 209 -222 281 -285
29 -26 75 -65 184 -153 66 -53 310 -210 329 -210 5 0 12 -5 15 -10 17 -28 381
-190 546 -244 64 -21 311 -84 360 -92 17 -3 51 -10 77 -14 26 -5 50 -7 53 -4
3 3 5 1 5 -4 0 -5 15 -9 33 -10 17 0 66 -4 107 -9 142 -17 624 -10 700 10 8 2
37 6 64 10 28 3 82 13 120 21 39 9 82 18 96 20 283 54 684 224 985 418 218
142 454 348 635 556 25 28 50 57 56 63 6 7 38 50 72 97 35 47 73 98 85 114 12
17 21 33 20 38 -2 4 2 8 7 8 6 0 15 10 21 23 5 12 15 31 22 42 82 135 121 208
185 345 50 108 71 160 65 160 -3 0 -1 6 5 13 20 24 117 347 136 452 3 17 8 41
11 55 15 79 37 232 42 294 15 156 7 549 -12 676 -45 289 -92 472 -187 715 -53
136 -185 403 -237 479 -17 25 -31 49 -31 55 0 6 -4 11 -8 11 -5 0 -14 10 -19
23 -11 22 -126 180 -180 246 -136 166 -324 348 -488 473 -38 29 -72 55 -75 59
-12 13 -99 69 -108 69 -6 0 -12 4 -14 9 -4 12 -176 113 -293 173 -132 67 -363
163 -445 183 -3 1 -12 4 -20 7 -48 17 -154 46 -193 54 -10 2 -28 6 -39 10 -11
3 -30 7 -41 9 -26 4 -133 23 -163 29 -11 2 -45 7 -75 10 -30 4 -67 9 -84 12
-34 5 -512 14 -517 9z"/>
</g>
</svg>
